<svg width="24" height="24" viewBox="0 0 24 24" fill="none" xmlns="http://www.w3.org/2000/svg">
<path opacity="0.3" fill-rule="evenodd" clip-rule="evenodd" d="M20.4061 6.73608C20.7673 6.89658 21 7.2547 21 7.64989V16.4116C21 16.7748 20.8031 17.1094 20.4856 17.2858L12.4856 21.7302C12.1836 21.898 11.8164 21.898 11.5144 21.7302L3.51436 17.2858C3.19689 17.1094 3 16.7748 3 16.4116L3 7.64989C3 7.2547 3.23273 6.89658 3.59386 6.73608L11.5939 3.18053C11.8524 3.06561 12.1476 3.06561 12.4061 3.18053L20.4061 6.73608Z" fill="black"/>
<path fill-rule="evenodd" clip-rule="evenodd" d="M14.9671 4.22439L7.59998 8.31725V12.9057L9.59998 13.9057V9.49406L17.255 5.24124L14.9671 4.22439Z" fill="black"/>
</svg>
