<svg width="24" height="24" viewBox="0 0 24 24" fill="none" xmlns="http://www.w3.org/2000/svg">
<path opacity="0.3" fill-rule="evenodd" clip-rule="evenodd" d="M16.993 6.4105L17.6062 3.78252C17.7308 3.2485 18.2069 2.87071 18.7552 2.87071H20.8201C21.4717 2.87071 22 3.39898 22 4.05063C22 4.70228 21.4717 5.23055 20.8201 5.23055H19.6915L18.1446 11.8438L17.4472 16.0288C17.3554 16.5792 16.8309 16.948 16.2819 16.8482L4.91303 14.7812C4.53842 14.713 4.23499 14.4381 4.13039 14.072L2.30559 7.68522C2.12308 7.0464 2.60274 6.4105 3.26712 6.4105H16.993Z" fill="black"/>
<path fill-rule="evenodd" clip-rule="evenodd" d="M8 19.5C8 20.3284 7.32843 21 6.5 21C5.67157 21 5 20.3284 5 19.5C5 18.6716 5.67157 18 6.5 18C7.32843 18 8 18.6716 8 19.5ZM17 19.5C17 20.3284 16.3284 21 15.5 21C14.6716 21 14 20.3284 14 19.5C14 18.6716 14.6716 18 15.5 18C16.3284 18 17 18.6716 17 19.5Z" fill="black"/>
</svg>
