<svg width="24" height="24" viewBox="0 0 24 24" fill="none" xmlns="http://www.w3.org/2000/svg">
<path fill-rule="evenodd" clip-rule="evenodd" d="M9.87511 21.1232C10.4621 21.7062 11.2301 21.9982 11.9991 21.9982C12.7721 21.9982 13.5461 21.7022 14.1321 21.1122L14.8511 20.3942C15.1351 20.1112 15.5141 19.9552 15.9151 19.9542H16.9431C18.6031 19.9542 19.9541 18.6032 19.9541 16.9432V15.9162C19.9551 15.5142 20.1111 15.1352 20.3931 14.8522L21.1031 14.1422C21.1091 14.1368 21.1147 14.1307 21.1204 14.1246C21.1242 14.1204 21.1281 14.1162 21.1321 14.1122C21.6931 13.5432 22.0011 12.7902 21.9991 11.9902C21.9961 11.1852 21.6811 10.4312 21.1121 9.8652L20.3941 9.1472C20.1111 8.8622 19.9551 8.4832 19.9541 8.0822V7.0552C19.9541 5.3942 18.6031 4.0432 16.9431 4.0432H15.9151C15.5141 4.0432 15.1361 3.8872 14.8521 3.6042L14.1221 2.8742C12.9441 1.7032 11.0341 1.7092 9.86511 2.8852L9.14611 3.6022C8.86111 3.8872 8.48311 4.0432 8.08211 4.0432H7.05411C5.39411 4.0432 4.04311 5.3942 4.04311 7.0552V8.0812C4.04211 8.4832 3.88611 8.8622 3.60411 9.1452L2.87411 9.8762C1.70411 11.0532 1.70911 12.9642 2.88511 14.1332L3.60311 14.8502C3.88611 15.1352 4.04211 15.5142 4.04311 15.9152V16.9432C4.04311 18.6032 5.39411 19.9542 7.05411 19.9542H8.08111C8.48311 19.9552 8.86211 20.1112 9.14511 20.3932L9.87511 21.1232ZM16.9575 14.792C17.0718 14.5296 17.1289 14.2503 17.1289 13.9541C17.1289 13.6579 17.0718 13.3807 16.9575 13.1226C16.8475 12.8602 16.6951 12.6317 16.5005 12.437C16.3058 12.2381 16.0773 12.0815 15.8149 11.9673C15.5568 11.853 15.2796 11.7959 14.9834 11.7959C14.6829 11.7959 14.4015 11.853 14.1392 11.9673C13.881 12.0815 13.6525 12.2381 13.4536 12.437C13.259 12.6317 13.1045 12.8602 12.9902 13.1226C12.8802 13.3807 12.8252 13.6579 12.8252 13.9541C12.8252 14.2503 12.8802 14.5296 12.9902 14.792C13.1045 15.0501 13.259 15.2765 13.4536 15.4712C13.6525 15.6659 13.881 15.8203 14.1392 15.9346C14.4015 16.0446 14.6829 16.0996 14.9834 16.0996C15.2796 16.0996 15.5568 16.0446 15.8149 15.9346C16.0773 15.8203 16.3058 15.6659 16.5005 15.4712C16.6951 15.2765 16.8475 15.0501 16.9575 14.792ZM10.3687 16.1948L15.0469 8H13.5298L8.84521 16.1948H10.3687ZM11.0034 11.0723C11.1177 10.8099 11.1748 10.5285 11.1748 10.228C11.1748 9.9318 11.1177 9.65462 11.0034 9.39648C10.8934 9.13411 10.7389 8.9056 10.54 8.71094C10.3454 8.51628 10.1169 8.36393 9.85449 8.25391C9.59212 8.13965 9.31283 8.08252 9.0166 8.08252C8.72038 8.08252 8.44108 8.13965 8.17871 8.25391C7.92057 8.36393 7.69417 8.51628 7.49951 8.71094C7.30485 8.9056 7.15039 9.13411 7.03613 9.39648C6.92611 9.65462 6.87109 9.9318 6.87109 10.228C6.87109 10.5285 6.92611 10.8099 7.03613 11.0723C7.15039 11.3304 7.30485 11.5589 7.49951 11.7578C7.69417 11.9525 7.92057 12.1069 8.17871 12.2212C8.44108 12.3312 8.72038 12.3862 9.0166 12.3862C9.31283 12.3862 9.59212 12.3312 9.85449 12.2212C10.1169 12.1069 10.3454 11.9525 10.54 11.7578C10.7389 11.5589 10.8934 11.3304 11.0034 11.0723ZM15.7388 13.6367C15.7811 13.734 15.8022 13.8398 15.8022 13.9541C15.8022 14.0684 15.7811 14.1763 15.7388 14.2778C15.6965 14.3752 15.6372 14.4619 15.561 14.5381C15.4891 14.61 15.4023 14.6672 15.3008 14.7095C15.2035 14.7518 15.0977 14.7729 14.9834 14.7729C14.8691 14.7729 14.7612 14.7518 14.6597 14.7095C14.5581 14.6672 14.4692 14.61 14.3931 14.5381C14.3211 14.4619 14.2619 14.3752 14.2153 14.2778C14.173 14.1763 14.1519 14.0684 14.1519 13.9541C14.1519 13.8398 14.173 13.734 14.2153 13.6367C14.2619 13.5352 14.3211 13.4463 14.3931 13.3701C14.4692 13.2939 14.5581 13.2347 14.6597 13.1924C14.7612 13.1458 14.8691 13.1226 14.9834 13.1226C15.0977 13.1226 15.2035 13.1458 15.3008 13.1924C15.4023 13.2347 15.4891 13.2939 15.561 13.3701C15.6372 13.4463 15.6965 13.5352 15.7388 13.6367ZM9.78467 9.91064C9.82699 10.008 9.84814 10.1138 9.84814 10.228C9.84814 10.3423 9.82699 10.4502 9.78467 10.5518C9.74235 10.6533 9.68311 10.7422 9.60693 10.8184C9.53499 10.8945 9.44824 10.9538 9.34668 10.9961C9.24512 11.0384 9.13509 11.0596 9.0166 11.0596C8.90234 11.0596 8.79443 11.0384 8.69287 10.9961C8.59554 10.9538 8.50879 10.8945 8.43262 10.8184C8.36068 10.7422 8.30355 10.6533 8.26123 10.5518C8.21891 10.4502 8.19775 10.3423 8.19775 10.228C8.19775 10.1138 8.21891 10.008 8.26123 9.91064C8.30355 9.80908 8.36068 9.72233 8.43262 9.65039C8.50879 9.57422 8.59554 9.51497 8.69287 9.47266C8.79443 9.43034 8.90234 9.40918 9.0166 9.40918C9.13509 9.40918 9.24512 9.43034 9.34668 9.47266C9.44824 9.51497 9.53499 9.57422 9.60693 9.65039C9.68311 9.72233 9.74235 9.80908 9.78467 9.91064Z" fill="black"/>
</svg>
