<svg width="24" height="24" viewBox="0 0 24 24" fill="none" xmlns="http://www.w3.org/2000/svg">
<path opacity="0.3" d="M17 7.99999C16.4477 7.99999 16 7.55228 16 6.99999C16 6.44771 16.4477 5.99999 17 5.99999H18C20.2091 5.99999 22 7.79085 22 9.99999V18C22 20.2091 20.2091 22 18 22H6C3.79086 22 2 20.2091 2 18L2 9.99305C2 7.78391 3.79086 5.99305 6 5.99305H7C7.55229 5.99305 8 6.44076 8 6.99305C8 7.54533 7.55229 7.99305 7 7.99305H6C4.89543 7.99305 4 8.88848 4 9.99305V18C4 19.1046 4.89543 20 6 20H18C19.1046 20 20 19.1046 20 18V9.99999C20 8.89542 19.1046 7.99999 18 7.99999H17Z" fill="black"/>
<rect opacity="0.3" width="2" height="12" rx="1" transform="matrix(-1 0 0 1 13 2)" fill="black"/>
<path d="M12 2.41421L14.2929 4.70711C14.6834 5.09763 15.3166 5.09763 15.7071 4.70711C16.0976 4.31658 16.0976 3.68342 15.7071 3.29289L12.7071 0.292893C12.3166 -0.097631 11.6834 -0.097631 11.2929 0.292893L8.29289 3.29289C7.90237 3.68342 7.90237 4.31658 8.29289 4.70711C8.68342 5.09763 9.31658 5.09763 9.70711 4.70711L12 2.41421Z" fill="black"/>
</svg>
