<svg width="26" height="26" viewBox="0 0 26 26" fill="none" xmlns="http://www.w3.org/2000/svg">
<path opacity="0.1" fill-rule="evenodd" clip-rule="evenodd" d="M0.5 13C0.5 6.09644 6.09644 0.5 13 0.5C19.9036 0.5 25.5 6.09644 25.5 13C25.5 19.9036 19.9036 25.5 13 25.5C6.09644 25.5 0.5 19.9036 0.5 13ZM13 1.5C6.64873 1.5 1.5 6.64873 1.5 13C1.5 19.3513 6.64873 24.5 13 24.5C19.3513 24.5 24.5 19.3513 24.5 13C24.5 6.64873 19.3513 1.5 13 1.5Z" fill="black"/>
<path fill-rule="evenodd" clip-rule="evenodd" d="M13.8333 8.83333C13.8333 8.3731 13.4602 8 13 8C12.5398 8 12.1667 8.3731 12.1667 8.83333V12.1667H8.83333C8.3731 12.1667 8 12.5398 8 13C8 13.4602 8.3731 13.8333 8.83333 13.8333H12.1667V17.1667C12.1667 17.6269 12.5398 18 13 18C13.4602 18 13.8333 17.6269 13.8333 17.1667V13.8333H17.1667C17.6269 13.8333 18 13.4602 18 13C18 12.5398 17.6269 12.1667 17.1667 12.1667H13.8333V8.83333Z" fill="black"/>
</svg>
